# xmcd CD database file
#
# Track frame offsets:
#	150
#	22236
#	42146
#	48195
#	69913
#	88765
#	111808
#	136512
#
# Disc length: 2146 seconds
#
# Revision: 0
# Processed by: cddbd v1.5.1PL2 Copyright (c) Steve Scherf et al.
# Submitted via: CDex 1.51
#
DISCID=5f086008
DTITLE=Cool John Ferguson - Guitar Heaven
DYEAR=2003
DGENRE=Blues
TTITLE0=16 Years
TTITLE1=Low Country Blues
TTITLE2=Song For Brenda
TTITLE3=Chunk Of Funk
TTITLE4=Straight Church
TTITLE5=It's True
TTITLE6=Having Fun
TTITLE7=Keep It Confidential
EXTD=YEAR: 2003
EXTT0=
EXTT1=
EXTT2=
EXTT3=
EXTT4=
EXTT5=
EXTT6=
EXTT7=
PLAYORDER=
